<?xml version="1.0" encoding="UTF-8" standalone="no"?>
<!-- Created with Inkscape (http://www.inkscape.org/) -->

<svg
   version="1.1"
   id="svg1"
   width="128"
   height="128"
   viewBox="0 0 640 640"
   sodipodi:docname="icon_128x128.svg"
   inkscape:version="1.3.2 (091e20e, 2023-11-25, custom)"
   xmlns:inkscape="http://www.inkscape.org/namespaces/inkscape"
   xmlns:sodipodi="http://sodipodi.sourceforge.net/DTD/sodipodi-0.dtd"
   xmlns:xlink="http://www.w3.org/1999/xlink"
   xmlns="http://www.w3.org/2000/svg"
   xmlns:svg="http://www.w3.org/2000/svg"
   xmlns:rdf="http://www.w3.org/1999/02/22-rdf-syntax-ns#"
   xmlns:cc="http://creativecommons.org/ns#"
   xmlns:dc="http://purl.org/dc/elements/1.1/">
  <title
     id="title3">Range les couleurs pour Anna Mon Amour</title>
  <defs
     id="defs1">
    <inkscape:path-effect
       effect="fillet_chamfer"
       id="path-effect8"
       is_visible="true"
       lpeversion="1"
       nodesatellites_param="F,0,0,1,0,26.473617,0,1 @ F,0,0,1,0,33.063063,0,1 @ F,0,0,1,0,28.944659,0,1 @ F,0,0,1,0,24.002574,0,1"
       radius="0"
       unit="px"
       method="auto"
       mode="F"
       chamfer_steps="1"
       flexible="false"
       use_knot_distance="true"
       apply_no_radius="true"
       apply_with_radius="true"
       only_selected="false"
       hide_knots="false" />
    <inkscape:perspective
       sodipodi:type="inkscape:persp3d"
       inkscape:vp_x="0 : 320 : 1"
       inkscape:vp_y="0 : 1000 : 0"
       inkscape:vp_z="640 : 320 : 1"
       inkscape:persp3d-origin="320 : 213.33333 : 1"
       id="perspective3" />
    <inkscape:path-effect
       effect="fillet_chamfer"
       id="path-effect3"
       is_visible="true"
       lpeversion="1"
       nodesatellites_param="F,0,0,1,0,75.894466,0,1 @ F,0,0,1,0,75.564994,0,1 @ F,0,0,1,0,56.126126,0,1 @ F,0,0,1,0,71.446589,0,1"
       radius="0"
       unit="px"
       method="auto"
       mode="F"
       chamfer_steps="1"
       flexible="false"
       use_knot_distance="true"
       apply_no_radius="true"
       apply_with_radius="true"
       only_selected="false"
       hide_knots="false" />
    <color-profile
       name="Agfa-:-Swop-Standard"
       xlink:href="../../../../../../WINDOWS/system32/spool/drivers/color/RSWOP.icm"
       id="color-profile5" />
    <color-profile
       name="sRGB-IEC61966-2.1"
       xlink:href="../../../../../../WINDOWS/system32/spool/drivers/color/sRGB%20Color%20Space%20Profile.icm"
       id="color-profile4" />
    <color-profile
       name="Agfa-:-Swop-Standard"
       xlink:href="../../../../../../WINDOWS/system32/spool/drivers/color/RSWOP.icm"
       id="color-profile6" />
    <inkscape:path-effect
       effect="fillet_chamfer"
       id="path-effect8-6"
       is_visible="true"
       lpeversion="1"
       nodesatellites_param="F,0,0,1,0,26.473617,0,1 @ F,0,0,1,0,33.063063,0,1 @ F,0,0,1,0,28.944659,0,1 @ F,0,0,1,0,24.002574,0,1"
       radius="0"
       unit="px"
       method="auto"
       mode="F"
       chamfer_steps="1"
       flexible="false"
       use_knot_distance="true"
       apply_no_radius="true"
       apply_with_radius="true"
       only_selected="false"
       hide_knots="false" />
  </defs>
  <sodipodi:namedview
     id="namedview1"
     pagecolor="#ffffff"
     bordercolor="#000000"
     borderopacity="0.25"
     inkscape:showpageshadow="true"
     inkscape:pageopacity="0.0"
     inkscape:pagecheckerboard="true"
     inkscape:deskcolor="#d1d1d1"
     inkscape:clip-to-page="true"
     borderlayer="true"
     inkscape:zoom="4"
     inkscape:cx="66"
     inkscape:cy="62.625"
     inkscape:window-width="1920"
     inkscape:window-height="991"
     inkscape:window-x="-9"
     inkscape:window-y="-9"
     inkscape:window-maximized="1"
     inkscape:current-layer="layer4"
     showborder="true"
     labelstyle="default" />
  <g
     inkscape:groupmode="layer"
     id="layer4"
     inkscape:label="fond"
     style="display:inline">
    <path
       style="display:inline;opacity:0.2;fill:#02142c;fill-opacity:1;stroke-width:4.81009"
       d="m 185.78553,169.54802 -0.0531,128.05825 c -0.2231,9.04456 -4.91967,14.36506 -7.89976,16.33096 l -97.621617,51.68673 c -13.060803,6.92738 -19.427511,16.73727 -19.69131,27.35741 l -0.08206,146.95617 c 0.111403,9.65441 4.447637,18.60623 13.985315,25.62601 l 116.578012,60.68992 c 9.71606,5.31949 19.12774,5.08406 28.277,0.0593 l 98.30677,-51.38857 c 10.25276,-4.55066 19.43081,-3.33689 28.13007,0.44496 l 98.24109,51.50216 c 8.24482,3.78748 17.40864,4.57041 28.35271,-1.23941 L 585.1203,566.67072 c 8.21375,-5.23348 14.61543,-15.72354 14.76849,-23.37405 l 0.15031,-148.88734 c -0.19312,-12.75315 -6.49227,-22.41816 -19.01488,-28.93571 l -95.22479,-49.75438 c -3.45445,-2.00099 -9.93675,-9.57973 -9.80806,-13.6787 l -0.13209,-134.7517 c 0.12922,-10.80655 -9.40581,-20.51027 -16.59668,-24.56939 L 343.32956,81.185518 c -6.62681,-3.080968 -17.65573,-3.607309 -24.99351,0.0063 L 202.54791,142.48088 c -12.0344,6.97824 -16.31793,16.41408 -16.76238,27.06718 z"
       id="path23"
       inkscape:label="ombre"
       sodipodi:nodetypes="ccccccccccccccccccccccccc" />
    <path
       style="display:inline;opacity:1;fill:#02142c;fill-opacity:1;stroke-width:5"
       d="M 178.80524,133.13583 178.75,266.25 c -0.23191,9.40164 -5.11391,14.9322 -8.21165,16.97573 L 69.0625,336.95312 c -13.576461,7.20087 -20.194536,17.39807 -20.46875,28.43751 l -0.0853,152.7582 c 0.115802,10.03558 4.623235,19.34083 14.537475,26.63777 L 184.2266,607.87262 c 10.09966,5.52951 19.88292,5.2848 29.3934,0.0617 l 102.18806,-53.41748 c 10.65756,-4.73032 20.19797,-3.46863 29.24068,0.46253 l 102.1198,53.53553 c 8.57032,3.93702 18.09595,4.75085 29.47209,-1.28834 L 593.90625,545.9375 c 8.53804,-5.4401 15.19246,-16.34432 15.35156,-24.29688 L 609.41406,366.875 c -0.20075,-13.25665 -6.74859,-23.30327 -19.76562,-30.07813 l -98.98438,-51.71875 c -3.59084,-2.07999 -10.32907,-9.95794 -10.19531,-14.21875 l -0.13729,-140.07189 c 0.13432,-11.2332 -9.77717,-21.32004 -17.25195,-25.53942 L 342.56932,41.28466 c -6.88844,-3.202609 -18.3528,-3.749731 -25.98029,0.0065 L 196.22942,105 c -12.50953,7.25375 -16.96218,17.06213 -17.42418,28.13583 z"
       id="path24"
       inkscape:label="principal"
       sodipodi:nodetypes="ccccccccccccccccccccccccc" />
  </g>
  <g
     inkscape:groupmode="layer"
     id="layer7"
     inkscape:label="carré droit"
     style="display:inline">
    <g
       inkscape:groupmode="layer"
       id="g13"
       inkscape:label="carré haut 3"
       style="display:inline;fill:#01172c;fill-opacity:1">
      <path
         style="display:inline;fill:#21e9bb;fill-opacity:1;stroke-width:5"
         d="m 368.96011,360.03881 c 0.0265,4.84794 7.61006,7.86591 16.13615,12.4624 8.61431,4.64406 18.93213,9.83402 28.66594,15.05858 18.99903,10.1976 40.26809,23.36036 48.50703,22.28128 7.32817,0.39019 29.8262,-12.97922 48.35788,-22.8115 10.00195,-5.30669 20.24946,-10.73277 28.84871,-15.52248 12.53971,-6.98452 16.2861,-7.55764 16.3054,-10.64167 0.003,-3.46456 -0.92523,-2.60389 -18.29544,-12.62026 -9.50736,-5.48233 -20.68865,-11.02242 -29.88615,-16.01071 -18.45547,-10.00937 -35.63951,-20.55492 -44.92999,-20.64208 -10.14683,-0.0935 -28.84049,10.8314 -47.09071,20.5267 -9.27238,4.92589 -20.47208,10.73336 -29.66291,15.53537 -9.50093,4.96403 -16.9882,7.37166 -16.95591,12.38437 z"
         id="path12"
         sodipodi:nodetypes="csscsscsscssc"
         inkscape:label="carré" />
      <path
         style="display:inline;fill:#e6e6e6;fill-opacity:1;stroke-width:5"
         d="m 382.70258,371.22681 c -3.6887,-1.77054 -7.57458,-4.10086 -11.48573,-6.25444 -4.21765,-2.4446 -2.45302,-8.66224 0.19334,-9.99894 26.69194,-13.62765 51.2572,-28.95664 80.07581,-40.88295 l 6.90026,4.95868 c 4.00215,3.49143 1.70849,10.26572 -0.82586,11.96153 z"
         id="path13"
         sodipodi:nodetypes="ccccccc"
         inkscape:label="reflet" />
    </g>
    <g
       inkscape:groupmode="layer"
       id="g21"
       inkscape:label="carré droit 3"
       transform="translate(130.9375,231.5625)"
       style="display:inline;fill:#007481;fill-opacity:1">
      <path
         style="display:inline;opacity:1;fill:#007481;fill-opacity:1;stroke-width:5"
         d="m 348.47106,216.55145 c -0.057,-3.52082 1.18647,-7.189 6.96058,-10.77233 l 77.80568,-41.24122 c 3.51401,-1.9786 11.61835,-1.7132 11.58546,6.92936 l 0.0318,104.73292 c -0.0261,5.61201 -1.71494,9.31427 -5.68779,11.53683 l -80.75089,42.10892 c -7.98075,3.19369 -10.31089,-5.20609 -10.23167,-8.68948 0,0 0.72876,-105.70986 0.28686,-104.605 z"
         id="path21"
         sodipodi:nodetypes="ccccccccsc"
         inkscape:label="carré" />
    </g>
    <g
       inkscape:groupmode="layer"
       id="g17"
       inkscape:label="carré gauche 3"
       style="display:inline">
      <path
         style="display:inline;fill:#21e9bb;fill-opacity:1;stroke-width:5"
         d="m 361.52405,398.96128 72.51176,38.55875 c 8.18783,3.91909 10.63334,8.3126 10.68377,12.76174 V 555.8506 c -0.003,6.41651 -4.96783,8.87923 -10.10941,6.46338 L 354.3425,521.10293 c -4.72425,-2.58243 -5.81971,-6.21955 -5.80049,-9.44651 l 0.0552,-107.00514 c -0.0217,-7.4903 6.44426,-8.98175 12.92682,-5.69 z"
         id="path16"
         sodipodi:nodetypes="ccccccccc"
         inkscape:label="carré" />
      <path
         style="display:inline;opacity:1;fill:#e6e6e6;fill-opacity:1;stroke-width:5"
         d="m 369.95775,403.48016 -0.12098,83.46419 c -0.0367,4.10185 -3.52537,8.05278 -8.23441,8.02588 -9.98941,-0.0394 -12.91586,-2.13907 -13.06035,-10.20834 l -0.062,-80.03248 c -0.0217,-7.4903 6.44426,-8.98175 12.92682,-5.69 z"
         id="path17"
         sodipodi:nodetypes="ccccccc"
         inkscape:label="reflet" />
    </g>
  </g>
  <g
     inkscape:groupmode="layer"
     id="layer6"
     inkscape:label="carré gauche"
     style="display:inline">
    <g
       inkscape:groupmode="layer"
       id="g11"
       inkscape:label="carré haut 2"
       style="display:inline;fill:#01172c;fill-opacity:1">
      <path
         style="display:inline;fill:#fd395f;fill-opacity:1;stroke-width:5"
         d="m 105.79162,359.94734 c 0.0265,4.84794 7.61006,7.86591 16.13615,12.4624 8.61431,4.64406 18.93213,9.83402 28.66594,15.05858 18.99903,10.1976 40.26809,23.36036 48.50703,22.28128 7.32817,0.39019 29.8262,-12.97922 48.35788,-22.8115 10.00195,-5.30669 20.24946,-10.73277 28.84871,-15.52248 12.53971,-6.98452 16.2861,-7.55764 16.3054,-10.64167 0.003,-3.46456 -0.92523,-2.60389 -18.29544,-12.62026 -9.50736,-5.48233 -20.68865,-11.02242 -29.88615,-16.01071 -18.45547,-10.00937 -35.63951,-20.55492 -44.92999,-20.64209 -10.14683,-0.0935 -28.84049,10.83141 -47.09071,20.52671 -9.27238,4.92589 -20.47208,10.73336 -29.66291,15.53537 -9.50093,4.96403 -16.9882,7.37166 -16.95591,12.38437 z"
         id="path10"
         sodipodi:nodetypes="csscsscsscssc"
         inkscape:label="carré" />
      <path
         style="display:inline;fill:#e6e6e6;fill-opacity:1;stroke-width:5"
         d="m 119.53409,371.13534 c -3.6887,-1.77054 -7.57458,-4.10086 -11.48573,-6.25444 -4.21765,-2.4446 -2.45302,-8.66224 0.19334,-9.99894 26.69194,-13.62765 51.2572,-28.95664 80.07581,-40.88295 l 6.90026,4.95867 c 4.00215,3.49144 1.70849,10.26573 -0.82586,11.96154 z"
         id="path11"
         sodipodi:nodetypes="ccccccc"
         inkscape:label="reflet" />
    </g>
    <g
       inkscape:groupmode="layer"
       id="g22"
       inkscape:label="carré droit 2"
       transform="translate(130.9375,231.5625)"
       style="display:inline;fill:#007481;fill-opacity:1">
      <path
         style="display:inline;opacity:1;fill:#fd395f;fill-opacity:1;stroke-width:5"
         d="m 85.033561,217.80145 c -0.057,-3.52082 1.18647,-7.189 6.96058,-10.77233 L 169.79982,165.7879 c 3.51401,-1.9786 11.61835,-1.7132 11.58546,6.92936 l 0.0318,104.73292 c -0.0261,5.61201 -1.71494,9.31427 -5.68779,11.53683 l -80.750889,42.10892 c -7.98075,3.19369 -10.31089,-5.20609 -10.23167,-8.68948 0,0 0.72876,-105.70986 0.28686,-104.605 z"
         id="path22"
         sodipodi:nodetypes="ccccccccsc"
         inkscape:label="carré" />
    </g>
    <g
       inkscape:groupmode="layer"
       id="layer2"
       inkscape:label="carré gauche 2"
       style="display:inline">
      <path
         style="display:inline;fill:#fd395f;fill-opacity:1;stroke-width:5"
         d="m 97.22718,398.02378 72.51176,38.55875 c 8.18783,3.91909 10.63334,8.3126 10.68377,12.76174 V 554.9131 c -0.003,6.41651 -4.96783,8.87923 -10.10941,6.46338 L 90.045629,520.16543 c -4.724244,-2.58243 -5.819708,-6.21955 -5.800486,-9.44651 l 0.05522,-107.00514 c -0.02173,-7.4903 6.444253,-8.98175 12.926815,-5.69 z"
         id="path14"
         sodipodi:nodetypes="ccccccccc"
         inkscape:label="carré" />
      <path
         style="display:inline;opacity:1;fill:#e6e6e6;fill-opacity:1;stroke-width:5"
         d="m 105.66088,402.54266 -0.12098,83.46419 c -0.0367,4.10185 -3.52537,8.05278 -8.234412,8.02588 -9.989412,-0.0394 -12.915854,-2.13907 -13.060345,-10.20834 l -0.06197,-80.03248 c -0.02173,-7.4903 6.444253,-8.98175 12.926815,-5.69 z"
         id="path15"
         sodipodi:nodetypes="ccccccc"
         inkscape:label="reflet" />
    </g>
  </g>
  <g
     inkscape:groupmode="layer"
     id="layer5"
     inkscape:label="carré haut"
     style="display:inline">
    <g
       inkscape:groupmode="layer"
       id="layer1"
       inkscape:label="carré haut 1"
       style="display:inline;fill:#01172c;fill-opacity:1"
       sodipodi:insensitive="true">
      <path
         style="display:inline;fill:#21e9bb;fill-opacity:1;stroke-width:5"
         d="m 236.92886,126.60131 c 0.0265,4.84794 7.61006,7.86591 16.13615,12.4624 8.61431,4.64406 18.93213,9.83402 28.66594,15.05858 18.99903,10.1976 40.26809,23.36036 48.50703,22.28128 7.32817,0.39019 29.8262,-12.97922 48.35788,-22.8115 10.00195,-5.30669 20.24946,-10.73277 28.84871,-15.52248 12.53971,-6.98452 16.2861,-7.55764 16.3054,-10.64167 0.003,-3.46456 -0.92523,-2.60389 -18.29544,-12.62026 -9.50736,-5.48233 -20.68865,-11.02242 -29.88615,-16.01071 -18.45547,-10.009366 -35.63951,-20.55492 -44.92999,-20.642084 -10.14683,-0.09348 -28.84049,10.831406 -47.09071,20.526704 -9.27238,4.92589 -20.47208,10.73336 -29.66291,15.53537 -9.50093,4.96403 -16.9882,7.37166 -16.95591,12.38437 z"
         id="path8"
         sodipodi:nodetypes="csscsscsscssc"
         inkscape:label="carré" />
      <path
         style="display:inline;fill:#e6e6e6;fill-opacity:1;stroke-width:5"
         d="m 250.67133,137.78931 c -3.6887,-1.77054 -7.57458,-4.10086 -11.48573,-6.25444 -4.21765,-2.4446 -2.45302,-8.66224 0.19334,-9.99894 26.69194,-13.62765 51.2572,-28.956639 80.07581,-40.882948 l 6.90026,4.958676 c 4.00215,3.491435 1.70849,10.265725 -0.82586,11.961534 z"
         id="path9"
         sodipodi:nodetypes="ccccccc"
         inkscape:label="reflet" />
    </g>
    <g
       inkscape:groupmode="layer"
       id="layer3"
       inkscape:label="carré droit 1"
       style="display:inline">
      <path
         style="display:inline;opacity:1;fill:#ee4421;fill-opacity:1;stroke-width:5"
         d="m 348.47106,216.55145 c -0.057,-3.52082 1.18647,-7.189 6.96058,-10.77233 l 77.80568,-41.24122 c 3.51401,-1.9786 11.61835,-1.7132 11.58546,6.92936 l 0.0318,104.73292 c -0.0261,5.61201 -1.71494,9.31427 -5.68779,11.53683 l -80.75089,42.10892 c -7.98075,3.19369 -10.31089,-5.20609 -10.23167,-8.68948 0,0 0.72876,-105.70986 0.28686,-104.605 z"
         id="path20"
         sodipodi:nodetypes="ccccccccsc"
         inkscape:label="carré" />
    </g>
    <g
       inkscape:groupmode="layer"
       id="g19"
       inkscape:label="carré gauche 1"
       style="display:inline">
      <path
         style="display:inline;fill:#f59800;fill-opacity:1;stroke-width:5"
         d="m 228.18689,166.16067 72.51176,38.55875 c 8.18783,3.91909 10.63334,8.3126 10.68377,12.76174 v 105.56883 c -0.003,6.41651 -4.96783,8.87923 -10.10941,6.46338 l -80.26767,-41.21105 c -4.72425,-2.58243 -5.81971,-6.21955 -5.80049,-9.44651 l 0.0552,-107.00514 c -0.0217,-7.4903 6.44426,-8.98175 12.92682,-5.69 z"
         id="path18"
         sodipodi:nodetypes="ccccccccc"
         inkscape:label="carré" />
      <path
         style="display:inline;opacity:1;fill:#e6e6e6;fill-opacity:1;stroke-width:5"
         d="m 236.62059,170.67955 -0.12098,83.46419 c -0.0367,4.10185 -3.52537,8.05278 -8.23441,8.02588 -9.98941,-0.0394 -12.91586,-2.13907 -13.06035,-10.20834 l -0.062,-80.03248 c -0.0217,-7.4903 6.44426,-8.98175 12.92682,-5.69 z"
         id="path19"
         sodipodi:nodetypes="ccccccc"
         inkscape:label="reflet" />
    </g>
  </g>
  <metadata
     id="metadata3">
    <rdf:RDF>
      <cc:Work
         rdf:about="">
        <dc:title>Range les couleurs pour Anna Mon Amour</dc:title>
        <dc:date>04/05/2025</dc:date>
        <dc:creator>
          <cc:Agent>
            <dc:title>leguims</dc:title>
          </cc:Agent>
        </dc:creator>
        <cc:license
           rdf:resource="http://creativecommons.org/publicdomain/zero/1.0/" />
      </cc:Work>
      <cc:License
         rdf:about="http://creativecommons.org/publicdomain/zero/1.0/">
        <cc:permits
           rdf:resource="http://creativecommons.org/ns#Reproduction" />
        <cc:permits
           rdf:resource="http://creativecommons.org/ns#Distribution" />
        <cc:permits
           rdf:resource="http://creativecommons.org/ns#DerivativeWorks" />
      </cc:License>
    </rdf:RDF>
  </metadata>
</svg>
